<svg width="55" height="55" viewBox="0 0 55 55" fill="none" xmlns="http://www.w3.org/2000/svg">
<rect width="55" height="55" fill="#2C2C2C"/>
<path d="M27.9998 20.6667C28.8839 20.6667 29.7317 21.0179 30.3569 21.6431C30.982 22.2682 31.3332 23.116 31.3332 24.0001C31.3332 24.4378 31.247 24.8713 31.0794 25.2757C30.9119 25.6801 30.6664 26.0476 30.3569 26.3571C30.0473 26.6666 29.6799 26.9122 29.2754 27.0797C28.871 27.2472 28.4376 27.3334 27.9998 27.3334C27.1158 27.3334 26.2679 26.9822 25.6428 26.3571C25.0177 25.732 24.6665 24.8841 24.6665 24.0001C24.6665 23.116 25.0177 22.2682 25.6428 21.6431C26.2679 21.0179 27.1158 20.6667 27.9998 20.6667ZM27.9998 14.6667C30.4752 14.6667 32.8492 15.6501 34.5995 17.4004C36.3498 19.1508 37.3332 21.5247 37.3332 24.0001C37.3332 31.0001 27.9998 41.3334 27.9998 41.3334C27.9998 41.3334 18.6665 31.0001 18.6665 24.0001C18.6665 21.5247 19.6498 19.1508 21.4002 17.4004C23.1505 15.6501 25.5245 14.6667 27.9998 14.6667ZM27.9998 17.3334C26.2317 17.3334 24.536 18.0358 23.2858 19.286C22.0355 20.5363 21.3332 22.232 21.3332 24.0001C21.3332 25.3334 21.3332 28.0001 27.9998 36.9467C34.6665 28.0001 34.6665 25.3334 34.6665 24.0001C34.6665 22.232 33.9641 20.5363 32.7139 19.286C31.4636 18.0358 29.7679 17.3334 27.9998 17.3334Z" fill="#F8F5F4"/>
</svg>
