<svg width="55" height="55" viewBox="0 0 55 55" fill="none" xmlns="http://www.w3.org/2000/svg">
<rect width="55" height="55" fill="#2C2C2C"/>
<path d="M17.3332 38.1666C16.5998 38.1666 15.9718 37.9053 15.4492 37.3826C14.9265 36.8599 14.6656 36.2324 14.6665 35.4999V19.4999C14.6665 18.7666 14.9278 18.1386 15.4505 17.6159C15.9732 17.0933 16.6007 16.8324 17.3332 16.8333H38.6665C39.3998 16.8333 40.0278 17.0946 40.5505 17.6173C41.0732 18.1399 41.3341 18.7675 41.3332 19.4999V35.4999C41.3332 36.2333 41.0718 36.8613 40.5492 37.3839C40.0265 37.9066 39.399 38.1675 38.6665 38.1666H17.3332ZM27.9998 28.8333L17.3332 22.1666V35.4999H38.6665V22.1666L27.9998 28.8333ZM27.9998 26.1666L38.6665 19.4999H17.3332L27.9998 26.1666ZM17.3332 22.1666V19.4999V35.4999V22.1666Z" fill="#F8F5F4"/>
</svg>
